<svg width="45" height="40" viewBox="0 0 45 40" fill="none" xmlns="http://www.w3.org/2000/svg">
<path d="M29.6458 26.1652C27.1308 30.3458 24.6182 34.524 22.1032 38.7022L21.3748 39.8553H7.36689L7.3313 39.7888C9.94355 35.2642 12.5558 30.7373 15.1681 26.2127C19.994 26.1961 24.8199 26.1795 29.6434 26.1629L29.6458 26.1652Z" fill="#70E0DD"/>
<path fill-rule="evenodd" clip-rule="evenodd" d="M15.842 0C13.2036 4.38697 10.5629 8.77395 7.92456 13.1609C12.9972 13.1514 18.0723 13.1419 23.1449 13.1325L29.8191 26.5117H29.8238V26.5164L36.5455 40L44.6076 26.6991L44.5104 26.5093L37.8979 13.7588L37.5704 13.1301L30.7634 0H15.842Z" fill="url(#paint0_linear_165_6)"/>
<path d="M15.1705 26.2127L14.9973 26.5093L7.3314 39.7888L0.09965 26.5093L0 26.329L7.92218 13.1609L15.1705 26.2127Z" fill="#24837D"/>
<defs>
<linearGradient id="paint0_linear_165_6" x1="1.21636" y1="14.7275" x2="30.9685" y2="14.7275" gradientUnits="userSpaceOnUse">
<stop stop-color="#2D9F90"/>
<stop offset="1" stop-color="#A0DAAD"/>
</linearGradient>
</defs>
</svg>
