<svg width="400" height="79" viewBox="0 0 400 79" fill="none" xmlns="http://www.w3.org/2000/svg">
<g clip-path="url(#clip0_102_307)">
<path fill-rule="evenodd" clip-rule="evenodd" d="M108.039 62.0601V67.3239H109.918V62.0601H108.039ZM121.448 62.0601V67.3239H123.274L123.229 63.3935H123.424L126.519 67.3239H129.633V62.0601H127.808L127.852 65.9821H127.666L124.589 62.0601H121.448ZM140.943 65.5797V65.8327C140.943 66.5819 141.084 66.8975 141.526 67.1191C141.95 67.3323 142.672 67.4034 144.436 67.4034C146.271 67.4034 146.977 67.3637 147.339 67.2215C147.912 67.0168 148.141 66.5663 148.141 65.6749C148.141 64.9245 147.983 64.5619 147.549 64.333C147.18 64.1355 146.782 64.0885 144.887 64.0403C143.6 64.009 143.14 63.9849 142.982 63.9452C142.813 63.8982 142.734 63.7958 142.734 63.6055C142.734 63.2188 142.857 63.1875 144.366 63.1875C145.716 63.1875 145.919 63.2044 146.059 63.3068C146.156 63.3863 146.182 63.4561 146.192 63.7163H147.922C147.929 63.6139 147.929 63.5031 147.929 63.4718C147.929 62.825 147.771 62.4865 147.392 62.2733C146.968 62.0516 146.351 61.9806 144.71 61.9806C142.583 61.9806 142.072 62.0276 141.614 62.2492C141.199 62.454 140.996 62.9273 140.996 63.7091C140.996 64.2379 141.104 64.5776 141.322 64.8137C141.587 65.0823 142.001 65.1931 142.858 65.216C143.052 65.216 143.635 65.2401 144.286 65.2714C144.914 65.2955 145.495 65.3184 145.697 65.3184C146.271 65.3268 146.403 65.4051 146.403 65.7207C146.403 66.1784 146.403 66.1784 144.482 66.1856C143.07 66.1784 143.052 66.1784 142.858 66.0748C142.717 65.9953 142.682 65.87 142.682 65.5773H140.943V65.5797ZM159.125 62.0601V63.4019H161.745V67.3239H163.624V63.4019H166.245V62.0601H159.126H159.125ZM177.439 62.0601V67.3239H179.318V62.0601H177.439ZM190.512 62.0601V63.4019H193.132V67.3239H195.011V63.4019H197.631V62.0601H190.513H190.512ZM208.808 62.0601V64.4836C208.817 65.3665 208.817 65.3665 208.834 65.5882C208.879 66.3073 208.975 66.6144 209.258 66.8746C209.7 67.2926 210.405 67.4034 212.655 67.4034C214.023 67.4034 214.613 67.3721 215.143 67.2769C215.813 67.1505 216.264 66.7325 216.36 66.1314C216.413 65.7604 216.422 65.6749 216.447 64.4824V62.0589H214.657V64.4824C214.657 64.6017 214.647 64.8691 214.64 65.0666C214.604 65.5231 214.568 65.6665 214.428 65.8002C214.234 65.9893 213.863 66.0375 212.628 66.0375C211.101 66.0375 210.758 65.9507 210.661 65.5316C210.618 65.3184 210.618 65.3111 210.599 64.4824V62.0589H208.809L208.808 62.0601ZM227.624 62.0601V63.4019H230.244V67.3239H232.123V63.4019H234.744V62.0601H227.625H227.624ZM245.936 62.0601V67.3239H252.483V66.0616H247.702V65.2256H252.211V64.0656H247.702V63.2995H252.447V62.0601H245.936ZM272.325 61.9806C269.872 61.9806 269.317 62.036 268.866 62.3431C268.418 62.6515 268.284 63.1875 268.284 64.6559C268.284 66.2037 268.408 66.7241 268.866 67.0396C269.318 67.3468 269.863 67.4022 272.342 67.4022C274.777 67.4022 275.333 67.3468 275.782 67.0396C276.233 66.7325 276.364 66.2037 276.364 64.6872C276.364 63.1803 276.233 62.6515 275.782 62.3431C275.332 62.036 274.785 61.9806 272.325 61.9806ZM272.325 63.3453C273.983 63.3453 274.185 63.3694 274.371 63.5983C274.531 63.7802 274.574 64.0789 274.574 64.8377C274.574 65.4762 274.512 65.7062 274.309 65.8471C274.079 66.0049 273.779 66.0363 272.342 66.0363C270.86 66.0363 270.579 66.0122 270.34 65.8471C270.137 65.6978 270.074 65.4846 270.074 64.8293C270.074 63.7633 270.173 63.52 270.613 63.4176C270.86 63.3538 271.106 63.3453 272.325 63.3453ZM287.77 62.0589V67.3227H289.56V65.499H293.769L293.777 64.2921H289.56V63.2983H293.988V62.0589H287.77ZM307.339 65.5785V65.8315C307.339 66.5807 307.48 66.8963 307.922 67.1179C308.346 67.3311 309.069 67.4022 310.832 67.4022C312.668 67.4022 313.374 67.3625 313.735 67.2203C314.309 67.0156 314.537 66.5651 314.537 65.6737C314.537 64.9233 314.38 64.5607 313.946 64.3318C313.576 64.1343 313.179 64.0873 311.281 64.0391C309.994 64.0078 309.534 63.9837 309.376 63.944C309.208 63.897 309.129 63.7946 309.129 63.6043C309.129 63.2176 309.252 63.1863 310.761 63.1863C312.111 63.1863 312.314 63.2032 312.455 63.3056C312.551 63.3851 312.578 63.4549 312.587 63.7151H314.316C314.324 63.6127 314.324 63.5019 314.324 63.4706C314.324 62.8238 314.166 62.4853 313.787 62.2721C313.363 62.0504 312.746 61.9794 311.106 61.9794C308.978 61.9794 308.468 62.0264 308.009 62.248C307.594 62.4528 307.391 62.9261 307.391 63.7079C307.391 64.2367 307.499 64.5764 307.717 64.8125C307.982 65.0811 308.397 65.1919 309.253 65.2148C309.447 65.2148 310.03 65.2389 310.682 65.2702C311.308 65.2943 311.89 65.3172 312.092 65.3172C312.667 65.3256 312.798 65.4039 312.798 65.7195C312.798 66.1772 312.798 66.1772 310.877 66.1844C309.465 66.1772 309.447 66.1772 309.253 66.0736C309.112 65.9941 309.077 65.8688 309.077 65.5761H307.338L307.339 65.5785ZM325.865 62.0589V67.3227H327.655V65.3111H328.635L331.273 67.3227H333.99L330.302 64.639L333.706 62.0263H330.963L328.635 63.9693H327.655V62.0589H325.865ZM345.07 62.0589V67.3227H346.949V62.0589H345.07ZM358.478 62.0589V67.3227H364.538V65.9809H360.357V62.0589H358.478ZM375.653 62.0589V67.3227H381.713V65.9809H377.532V62.0589H375.653ZM392.801 65.5785V65.8315C392.801 66.5807 392.942 66.8963 393.383 67.1179C393.808 67.3311 394.531 67.4022 396.294 67.4022C398.13 67.4022 398.835 67.3625 399.197 67.2203C399.77 67.0156 400 66.5651 400 65.6737C400 64.9233 399.842 64.5607 399.408 64.3318C399.038 64.1343 398.64 64.0873 396.744 64.0391C395.456 64.0078 394.996 63.9837 394.838 63.944C394.669 63.897 394.59 63.7946 394.59 63.6043C394.59 63.2176 394.714 63.1863 396.223 63.1863C397.572 63.1863 397.776 63.2032 397.916 63.3056C398.014 63.3851 398.04 63.4549 398.049 63.7151H399.778C399.786 63.6127 399.786 63.5019 399.786 63.4706C399.786 62.8238 399.629 62.4853 399.249 62.2721C398.825 62.0504 398.208 61.9794 396.568 61.9794C394.441 61.9794 393.93 62.0264 393.471 62.248C393.057 62.4528 392.853 62.9261 392.853 63.7079C392.853 64.2367 392.96 64.5764 393.179 64.8125C393.444 65.0811 393.859 65.1919 394.715 65.2148C394.908 65.2148 395.492 65.2389 396.143 65.2702C396.77 65.2943 397.351 65.3172 397.554 65.3172C398.129 65.3256 398.26 65.4039 398.26 65.7195C398.26 66.1772 398.26 66.1772 396.337 66.1844C394.926 66.1772 394.907 66.1772 394.714 66.0736C394.573 65.9941 394.537 65.8688 394.537 65.5761H392.799L392.801 65.5785Z" fill="white"/>
<path fill-rule="evenodd" clip-rule="evenodd" d="M108.085 56.2242H398.911V56.5964H108.085V56.2242Z" fill="url(#paint0_linear_102_307)"/>
<path d="M57.9027 51.1027C52.9918 59.2658 48.0809 67.4278 43.17 75.5898L41.7462 77.8411H14.3875L14.32 77.7134C19.4224 68.8745 24.5261 60.0367 29.6285 51.1978C39.0528 51.1665 48.4784 51.134 57.9027 51.1027Z" fill="white"/>
<path fill-rule="evenodd" clip-rule="evenodd" d="M30.9415 0C25.7873 8.5679 20.6307 17.137 15.4764 25.7049C25.3862 25.6856 35.296 25.6664 45.2057 25.6471L58.24 51.7796H58.2509L58.2449 51.7904L71.3804 78.1265L87.1285 52.1482L86.937 51.7796L74.0231 26.8769L73.3859 25.6471L60.0854 0.00120454H30.9403L30.9415 0Z" fill="url(#paint1_linear_102_307)"/>
<path d="M29.6285 51.1979L29.2937 51.7784L14.32 77.7134L0.194389 51.7784L0.000457764 51.4231L15.4752 25.705L29.6285 51.1979Z" fill="#DDDDDD"/>
<path fill-rule="evenodd" clip-rule="evenodd" d="M153.678 51.8086H167.059L146.841 13.1681H128.536L108.086 51.8086H121.527L124.828 45.2619H150.377L153.678 51.8086ZM146.263 36.8036H129L136.474 22.1468H138.79L146.264 36.8036H146.263ZM166.366 34.0236L166.308 41.8434H190.755V34.0236H166.366ZM231.713 36.9205C231.655 42.6553 231.482 42.7131 218.563 42.7131C206.166 42.7131 205.991 42.5963 205.991 32.6901C205.991 26.8409 206.455 24.5812 207.845 23.4224C209.004 22.4949 211.147 22.2636 218.505 22.2636C226.5 22.2636 229.744 22.6117 230.439 23.5959C230.902 24.2343 231.019 24.7546 231.134 27.0143H242.894V25.1027C242.894 18.7307 241.62 15.8928 238.085 14.2113C235.421 12.9381 231.83 12.59 221.865 12.59C201.937 12.59 197.649 13.5741 195.448 18.4416C194.522 20.6435 194.233 23.7705 194.233 32.7492C194.233 37.3264 194.29 40.5124 194.464 42.2506C194.928 46.5954 196.202 48.8551 199.041 50.3029C202.227 51.9254 207.092 52.388 221.807 52.388C230.671 52.388 234.957 51.9833 238.085 50.9401C242.082 49.4923 243.647 46.6532 243.647 40.5714C243.647 39.9909 243.589 39.1236 243.53 36.9217H231.712L231.713 36.9205ZM247.47 13.1681V30.9532C247.528 37.4408 247.528 37.4408 247.644 39.0634C247.933 44.3356 248.571 46.5942 250.424 48.5058C253.321 51.5761 257.955 52.3868 272.728 52.3868C281.706 52.3868 285.589 52.1555 289.064 51.4605C293.466 50.533 296.421 47.4638 297.058 43.06C297.406 40.3366 297.464 39.6994 297.636 30.952V13.1669H285.878V30.952C285.878 31.8217 285.82 33.7899 285.761 35.2389C285.53 38.5996 285.297 39.6415 284.371 40.6281C283.095 42.0181 280.663 42.3662 272.552 42.3662C262.53 42.3662 260.27 41.729 259.634 38.6586C259.345 37.0939 259.345 37.0373 259.228 30.9532V13.1681H247.469H247.47ZM302.91 51.8086H330.716C336.277 51.7508 339.291 51.7508 339.752 51.7508C343.228 51.6339 345.43 51.4027 346.762 50.8823C350.006 49.6067 351.396 46.8266 351.396 41.4387C351.396 35.2401 349.833 32.9816 344.735 32.112C348.616 31.011 349.948 28.7513 349.948 23.2477C349.948 18.1501 348.848 15.6013 346.01 14.2691C343.867 13.226 343.461 13.226 330.658 13.1681H302.91V51.8086ZM314.09 28.4044V22.2636H330.658C336.103 22.3215 336.219 22.3215 336.856 22.4949C338.015 22.7852 338.537 23.6537 338.537 25.2184C338.537 26.6662 338.073 27.6515 337.147 27.9985C336.394 28.2887 334.654 28.4044 330.658 28.4044H314.09ZM314.09 42.5397V36.1098H330.717C337.61 36.1676 337.61 36.1676 338.249 36.2845C339.464 36.6326 339.987 37.442 339.987 39.1814C339.987 40.8605 339.523 41.7302 338.48 42.1361C337.61 42.4843 337.61 42.4843 330.717 42.5409H314.09V42.5397ZM355.512 13.1694V51.8098H398.497V42.5397H367.099V36.3989H396.7V27.884H367.099V22.2636H398.265V13.1681H355.512V13.1694Z" fill="white"/>
</g>
<defs>
<linearGradient id="paint0_linear_102_307" x1="108.08" y1="56.4103" x2="398.901" y2="56.4103" gradientUnits="userSpaceOnUse">
<stop stop-color="white"/>
<stop offset="1" stop-color="#DDDDDD"/>
</linearGradient>
<linearGradient id="paint1_linear_102_307" x1="15.4752" y1="39.062" x2="87.1261" y2="39.062" gradientUnits="userSpaceOnUse">
<stop stop-color="white"/>
<stop offset="1" stop-color="#DDDDDD"/>
</linearGradient>
<clipPath id="clip0_102_307">
<rect width="400" height="78.1253" fill="white"/>
</clipPath>
</defs>
</svg>
