<svg width="164" height="32" viewBox="0 0 164 32" fill="none" xmlns="http://www.w3.org/2000/svg">
<g clip-path="url(#clip0_2_16)">
<path fill-rule="evenodd" clip-rule="evenodd" d="M44.2522 25.4193V27.5755H45.021V25.4193H44.2522ZM49.7453 25.4193V27.5755H50.4932L50.4742 25.9659H50.5539L51.8218 27.5755H53.0974V25.4193H52.3495L52.3666 27.0251H52.2907L51.0303 25.4193H49.7434H49.7453ZM57.7287 26.8619V26.9662C57.7287 27.2737 57.7857 27.4028 57.9679 27.4939C58.1406 27.5812 58.4367 27.6097 59.1599 27.6097C59.883 27.6097 60.2 27.5926 60.3481 27.5357C60.5834 27.4522 60.6765 27.268 60.6765 26.9017C60.6765 26.5942 60.6119 26.4462 60.4335 26.3513C60.2817 26.2696 60.1184 26.2507 59.344 26.2317C58.8163 26.2184 58.6284 26.2089 58.5639 26.1918C58.4955 26.1728 58.4614 26.1311 58.4614 26.0533C58.4614 25.8957 58.5126 25.8824 59.1295 25.8824C59.6818 25.8824 59.7654 25.89 59.8223 25.9318C59.8622 25.964 59.8736 25.9925 59.8774 26.0988H60.5853C60.5891 26.0571 60.5891 26.0115 60.5891 25.9982C60.5891 25.7325 60.5246 25.5939 60.369 25.5066C60.1962 25.4155 59.9419 25.387 59.27 25.387C58.3987 25.387 58.1899 25.406 58.002 25.4971C57.8331 25.5806 57.7496 25.7742 57.7496 26.095C57.7496 26.3114 57.7932 26.45 57.8825 26.5468C57.9907 26.6569 58.1615 26.7024 58.5107 26.7119C58.5904 26.7119 58.8296 26.7214 59.0953 26.7347C59.3516 26.7442 59.5907 26.7537 59.6724 26.7537C59.9077 26.7575 59.9609 26.7897 59.9609 26.9188C59.9609 27.0441 59.6983 27.1073 59.1732 27.1086C58.5942 27.1048 58.5867 27.1048 58.5088 27.063C58.4519 27.0308 58.4367 26.9795 58.4367 26.86H57.7249L57.7287 26.8619ZM65.1768 25.4193V25.9697H66.2493V27.5755H67.018V25.9697H68.0923V25.4193H65.1768ZM72.6781 25.4193V27.5755H73.4468V25.4193H72.6781ZM78.0326 25.4193V25.9697H79.1051V27.5755H79.8738V25.9697H80.9462V25.4193H78.0308H78.0326ZM85.5263 25.4193V26.412C85.5289 26.6537 85.5327 26.8043 85.5377 26.8637C85.5567 27.158 85.5947 27.2832 85.7104 27.3914C85.8908 27.5622 86.1793 27.6078 87.1018 27.6078C87.6617 27.6078 87.9046 27.5945 88.121 27.5566C88.3963 27.5053 88.5804 27.3345 88.6202 27.0877C88.6411 26.9359 88.6449 26.8998 88.6563 26.412V25.4193H87.9236V26.412C87.9236 26.4614 87.9198 26.5695 87.916 26.6512C87.9008 26.8391 87.8857 26.896 87.8287 26.9511C87.749 27.0289 87.5972 27.0479 87.0923 27.0479C86.4659 27.0479 86.3254 27.0118 86.2875 26.841C86.2704 26.7537 86.2704 26.7499 86.2609 26.412V25.4193H85.5263ZM93.2345 25.4193V25.9697H94.3069V27.5755H95.0757V25.9697H96.15V25.4193H93.2345ZM100.734 25.4193V27.5755H103.416V27.0593H101.457V26.7176H103.304V26.2431H101.457V25.9299H103.401V25.4231H100.734V25.4193ZM111.544 25.387C110.539 25.387 110.312 25.4098 110.126 25.5351C109.942 25.6623 109.886 25.8805 109.886 26.4822C109.886 27.1162 109.938 27.3288 110.126 27.4579C110.31 27.5831 110.534 27.6059 111.549 27.6059C112.565 27.6059 112.773 27.5831 112.958 27.4579C113.142 27.3326 113.197 27.1162 113.197 26.4936C113.197 25.871 113.144 25.6604 112.958 25.5332C112.773 25.4079 112.55 25.3851 111.542 25.3851L111.544 25.387ZM111.544 25.947C112.223 25.947 112.305 25.9565 112.381 26.0514C112.447 26.1254 112.464 26.2488 112.464 26.5582C112.464 26.8201 112.438 26.9131 112.356 26.9719C112.261 27.0365 112.14 27.0498 111.551 27.0498C110.963 27.0498 110.828 27.0403 110.731 26.9719C110.648 26.9112 110.623 26.8239 110.623 26.5544C110.623 26.1178 110.663 26.0172 110.843 25.9754C110.944 25.9489 111.046 25.9451 111.545 25.9451L111.544 25.947ZM117.87 25.4193V27.5755H118.603V26.8277H120.326L120.33 26.3342H118.603V25.928H120.417V25.4212H117.87V25.4193ZM125.886 26.8619V26.9662C125.886 27.2737 125.942 27.4028 126.125 27.4939C126.297 27.5812 126.594 27.6097 127.317 27.6097C128.04 27.6097 128.357 27.5926 128.505 27.5357C128.74 27.4522 128.833 27.268 128.833 26.9017C128.833 26.5942 128.769 26.4462 128.59 26.3513C128.438 26.2696 128.275 26.2507 127.499 26.2317C126.971 26.2184 126.783 26.2089 126.719 26.1918C126.65 26.1728 126.618 26.1311 126.618 26.0533C126.618 25.8957 126.669 25.8824 127.286 25.8824C127.839 25.8824 127.922 25.89 127.979 25.9318C128.019 25.964 128.03 25.9925 128.034 26.0988H128.742C128.746 26.0571 128.746 26.0115 128.746 25.9982C128.746 25.7325 128.681 25.5939 128.526 25.5066C128.353 25.4155 128.099 25.387 127.427 25.387C126.556 25.387 126.347 25.406 126.159 25.4971C125.99 25.5806 125.906 25.7742 125.906 26.095C125.906 26.3114 125.95 26.45 126.039 26.5468C126.147 26.6569 126.318 26.7024 126.668 26.7119C126.747 26.7119 126.986 26.7214 127.252 26.7347C127.508 26.7442 127.748 26.7537 127.829 26.7537C128.065 26.7575 128.118 26.7897 128.118 26.9188C128.118 27.0441 127.855 27.1073 127.33 27.1086C126.751 27.1048 126.743 27.1048 126.666 27.063C126.609 27.0308 126.594 26.9795 126.594 26.86H125.882L125.886 26.8619ZM133.474 25.4193V27.5755H134.207V26.7518H134.609L135.689 27.5755H136.801L135.291 26.4765L136.686 25.406H135.562L134.609 26.2013H134.207V25.4193H133.474ZM141.34 25.4193V27.5755H142.109V25.4193H141.34ZM146.831 25.4193V27.5755H149.314V27.0251H147.602V25.4193H146.833H146.831ZM153.867 25.4193V27.5755H156.35V27.0251H154.638V25.4193H153.869H153.867ZM160.89 26.8619V26.9662C160.89 27.2737 160.947 27.4028 161.129 27.4939C161.304 27.5812 161.6 27.6097 162.321 27.6097C163.043 27.6097 163.362 27.5926 163.51 27.5357C163.743 27.4522 163.838 27.268 163.838 26.9017C163.838 26.5942 163.773 26.4462 163.595 26.3513C163.443 26.2696 163.28 26.2507 162.504 26.2317C161.976 26.2184 161.788 26.2089 161.724 26.1918C161.655 26.1728 161.621 26.1311 161.621 26.0533C161.621 25.8957 161.672 25.8824 162.289 25.8824C162.841 25.8824 162.925 25.89 162.982 25.9318C163.022 25.964 163.033 25.9925 163.037 26.0988H163.745C163.749 26.0571 163.749 26.0115 163.749 25.9982C163.749 25.7325 163.684 25.5939 163.529 25.5066C163.356 25.4155 163.102 25.387 162.43 25.387C161.558 25.387 161.35 25.406 161.162 25.4971C160.993 25.5806 160.909 25.7742 160.909 26.095C160.909 26.3114 160.953 26.45 161.042 26.5468C161.15 26.6569 161.321 26.7024 161.67 26.7119C161.75 26.7119 161.989 26.7214 162.255 26.7347C162.511 26.7442 162.75 26.7537 162.834 26.7537C163.069 26.7575 163.122 26.7897 163.122 26.9188C163.122 27.0441 162.86 27.1073 162.335 27.1086C161.758 27.1048 161.748 27.1048 161.67 27.063C161.613 27.0308 161.598 26.9795 161.598 26.86H160.886L160.89 26.8619Z" fill="#F89C03"/>
<path fill-rule="evenodd" clip-rule="evenodd" d="M44.2712 23.0295H163.392V23.1814H44.2712V23.0295Z" fill="url(#paint0_linear_2_16)"/>
<path d="M23.7167 20.9322C21.7047 24.2766 19.6946 27.6192 17.6827 30.9617L17.0999 31.8842H5.89358L5.86511 31.8311C7.95492 28.2114 10.0447 24.5898 12.1345 20.9702C15.9953 20.9569 19.856 20.9436 23.7148 20.9303L23.7167 20.9322Z" fill="#70E0DD"/>
<path fill-rule="evenodd" clip-rule="evenodd" d="M12.6736 0C10.5629 3.50958 8.45031 7.01916 6.33963 10.5287C10.3978 10.5211 14.4578 10.5136 18.5159 10.506L23.8553 21.2093H23.8591V21.2131L29.2364 32L35.6861 21.3593L35.6083 21.2074L30.3183 11.0071L30.0563 10.5041L24.6107 0H12.6736Z" fill="url(#paint1_linear_2_16)"/>
<path d="M12.1364 20.9701L11.9979 21.2074L5.86512 31.831L0.07972 21.2074L0 21.0631L6.33774 10.5287L12.1364 20.9701Z" fill="#24837D"/>
<path fill-rule="evenodd" clip-rule="evenodd" d="M62.9466 21.2208H68.4283L60.1469 5.39443H52.6494L44.2731 21.2208H49.7776L51.129 18.5387H61.5932L62.9447 21.2208H62.9466ZM59.9096 15.0747H52.8392L55.9008 9.07105H56.8499L59.9115 15.0747H59.9096ZM68.1436 13.9359L68.1208 17.138H78.1351V13.9359H68.1455H68.1436ZM94.9086 15.1222C94.8858 17.472 94.8137 17.4948 89.5218 17.4948C84.2299 17.4948 84.3723 17.4473 84.3723 13.3892C84.3723 10.9938 84.5621 10.0675 85.1315 9.59302C85.606 9.2134 86.483 9.1185 89.4971 9.1185C92.7714 9.1185 94.1 9.26086 94.3847 9.66325C94.5746 9.92519 94.622 10.1378 94.6695 11.064H99.4868V10.2801C99.4868 7.67025 98.9648 6.50862 97.5166 5.81961C96.4252 5.29763 94.9542 5.15527 90.8733 5.15527C82.7114 5.15527 80.9538 5.55767 80.0522 7.55257C79.6726 8.45416 79.5549 9.73538 79.5549 13.412C79.5549 15.2873 79.5777 16.5913 79.6498 17.3031C79.8396 19.0835 80.3616 20.0079 81.5251 20.602C82.831 21.2663 84.8221 21.4561 90.8505 21.4561C94.4815 21.4561 96.2373 21.291 97.5185 20.8639C99.1547 20.2717 99.7962 19.1082 99.7962 16.6179C99.7962 16.3806 99.7734 16.0257 99.7488 15.1222H94.9086ZM101.362 5.39443V12.6793C101.377 14.4509 101.401 15.5581 101.434 16.001C101.552 18.161 101.814 19.0854 102.573 19.8693C103.759 21.1278 105.658 21.4599 111.709 21.4599C115.387 21.4599 116.976 21.365 118.399 21.0803C120.203 20.7007 121.414 19.4441 121.674 17.6391C121.816 16.523 121.841 16.2629 121.911 12.6793V5.39254H117.095V12.6774C117.095 13.0343 117.073 13.8391 117.048 14.4332C116.953 15.8093 116.858 16.2364 116.479 16.6407C115.957 17.2101 114.96 17.3524 111.638 17.3524C107.533 17.3524 106.608 17.0905 106.347 15.834C106.229 15.1924 106.229 15.1696 106.18 12.6774V5.39443H101.362ZM124.071 21.2208H135.46C137.737 21.198 138.971 21.198 139.161 21.198C140.584 21.1505 141.486 21.0556 142.033 20.843C143.361 20.3211 143.931 19.1822 143.931 16.9747C143.931 14.4351 143.291 13.5107 141.203 13.1539C142.794 12.7021 143.339 11.7777 143.339 9.52279C143.339 7.43489 142.887 6.39093 141.725 5.84428C140.848 5.41721 140.681 5.41721 135.437 5.39254H124.071V21.2189V21.2208ZM128.651 11.6335V9.1185H135.437C137.667 9.14128 137.714 9.14128 137.976 9.2134C138.451 9.33298 138.665 9.68793 138.665 10.3295C138.665 10.9217 138.476 11.326 138.096 11.4683C137.789 11.5879 137.075 11.6354 135.439 11.6354H128.653L128.651 11.6335ZM128.651 17.4246V14.79H135.461C137.344 14.8052 138.372 14.8292 138.546 14.8621C139.043 15.0045 139.258 15.3367 139.258 16.0484C139.258 16.7602 139.068 17.0924 138.641 17.2594C138.403 17.3543 137.343 17.4094 135.461 17.4246H128.651ZM145.616 5.39443V21.2208H163.223V17.4246H150.361V14.9096H162.487V11.4228H150.361V9.1204H163.126V5.39443H145.614H145.616Z" fill="#24837D"/>
</g>
<defs>
<linearGradient id="paint0_linear_2_16" x1="22.4877" y1="23.0854" x2="119.102" y2="23.0854" gradientUnits="userSpaceOnUse">
<stop stop-color="#2D9F90"/>
<stop offset="1" stop-color="#A0DAAD"/>
</linearGradient>
<linearGradient id="paint1_linear_2_16" x1="0.973068" y1="11.782" x2="24.7748" y2="11.782" gradientUnits="userSpaceOnUse">
<stop stop-color="#2D9F90"/>
<stop offset="1" stop-color="#A0DAAD"/>
</linearGradient>
<clipPath id="clip0_2_16">
<rect width="163.838" height="32" fill="white"/>
</clipPath>
</defs>
</svg>
